<svg width="16" height="30" viewBox="0 0 16 30" fill="none" xmlns="http://www.w3.org/2000/svg">
<path d="M15.6078 11.2745H15.2549C15.098 7.50982 12.0784 4.49021 8.35294 4.29413V0.49021C8.35294 0.254916 8.19608 0.098053 7.96078 0.098053C7.72549 0.098053 7.56863 0.254916 7.56863 0.49021V4.29413C3.80392 4.49021 0.823529 7.50982 0.666667 11.2745H0.392157C0.156863 11.2745 0 11.4314 0 11.6667V13.6667C0 13.902 0.156863 14.0588 0.392157 14.0588H0.666667L2.11765 29.549C2.11765 29.7451 2.31372 29.902 2.5098 29.902H13.2941C13.4902 29.902 13.6471 29.7451 13.6863 29.549L15.1373 14.0588H15.6078C15.8431 14.0588 16 13.902 16 13.6667V11.6667C16 11.4314 15.8039 11.2745 15.6078 11.2745ZM8.35294 5.07844C11.6471 5.27452 14.3137 7.94119 14.4706 11.2745H8.35294V5.07844ZM7.56863 5.07844V11.2745H1.45098C1.60784 7.94119 4.23529 5.27452 7.56863 5.07844ZM0.784313 12.0588H7.56863V13.2745H0.784313V12.0588ZM1.45098 14.0588H7.56863V16.6079H1.68627L1.45098 14.0588ZM12.9412 29.1177H2.86274L1.76471 17.353H7.56863V24.1373C7.56863 24.3726 7.72549 24.5294 7.96078 24.5294C8.19608 24.5294 8.35294 24.3726 8.35294 24.1373V17.353H14.0392L12.9412 29.1177ZM14.1176 16.5686H8.35294V14.0588H14.3529L14.1176 16.5686ZM15.2157 13.2745H8.35294V12.0588H15.2157V13.2745Z" fill="#A4ACAD"/>
</svg>
