<svg width="35" height="35" viewBox="0 0 35 35" fill="none" xmlns="http://www.w3.org/2000/svg">
<path d="M17.1596 0.840728C10.1964 0.840728 3.5842 0.221801 1.05858 6.6985C0.0153556 9.37349 0.166854 12.8475 0.166854 17.8219C0.166854 22.187 0.0268619 26.2896 1.05858 28.9435C3.57844 35.424 10.2444 34.8032 17.1558 34.8032C23.8236 34.8032 30.6986 35.4968 33.2549 28.9435C34.3 26.2417 34.1466 22.8194 34.1466 17.8219C34.1466 11.1881 34.5129 6.90545 31.2931 3.69009C28.033 0.432581 23.6242 0.840728 17.1519 0.840728H17.1596ZM15.6369 3.90087C30.1616 3.87788 32.0103 2.26446 30.9901 24.6781C30.6276 32.6053 24.5869 31.7354 17.1615 31.7354C3.62255 31.7354 3.23326 31.3483 3.23326 17.8143C3.23326 4.12315 4.30717 3.90854 15.6369 3.89704V3.90087ZM26.2303 6.71958C25.1046 6.71958 24.1918 7.63168 24.1918 8.75648C24.1918 9.88128 25.1046 10.7934 26.2303 10.7934C27.356 10.7934 28.2688 9.88128 28.2688 8.75648C28.2688 7.63168 27.356 6.71958 26.2303 6.71958ZM17.1596 9.1014C12.3404 9.1014 8.43406 13.0066 8.43406 17.8219C8.43406 22.6373 12.3404 26.5406 17.1596 26.5406C21.9788 26.5406 25.8832 22.6373 25.8832 17.8219C25.8832 13.0066 21.9788 9.1014 17.1596 9.1014ZM17.1596 12.1615C24.6482 12.1615 24.6578 23.4824 17.1596 23.4824C9.6729 23.4824 9.66139 12.1615 17.1596 12.1615Z" fill="white"/>
</svg>
