<svg width="35" height="36" viewBox="0 0 35 36" fill="none" xmlns="http://www.w3.org/2000/svg">
<path d="M0 35.0085L2.44914 26.3099C0.8742 23.6343 0.0449822 20.5901 0.0449822 17.4628C0.0449822 7.83379 7.87877 0 17.5078 0C27.1368 0 34.9705 7.83379 34.9705 17.4628C34.9705 27.0919 27.1368 34.9256 17.5078 34.9256C14.5075 34.9256 11.5695 34.1576 8.97053 32.6993L0 35.0085ZM9.42914 29.5224L9.96366 29.8487C12.2297 31.2321 14.8385 31.9634 17.5078 31.9634C25.5034 31.9634 32.0082 25.4584 32.0082 17.4628C32.0082 9.46721 25.5034 2.96227 17.5078 2.96227C9.51219 2.96227 3.00726 9.46721 3.00726 17.4628C3.00726 20.2488 3.79906 22.9542 5.29688 25.2866L5.65685 25.8472L4.24647 30.8565L9.42914 29.5224Z" fill="white"/>
<path d="M12.6023 9.33506L11.4691 9.27329C11.1132 9.25387 10.7641 9.3728 10.4951 9.60649C9.94575 10.0835 9.06738 11.0058 8.79759 12.2076C8.39527 13.9995 9.01702 16.1938 10.6262 18.3881C12.2354 20.5824 15.2342 24.0932 20.537 25.5927C22.2458 26.0759 23.59 25.7501 24.6271 25.0867C25.4485 24.5613 26.0148 23.7179 26.2188 22.7645L26.3998 21.9195C26.4572 21.6509 26.3209 21.3784 26.0714 21.2634L22.2418 19.4982C21.9932 19.3836 21.6984 19.4561 21.5312 19.6727L20.0278 21.6217C19.9142 21.7689 19.7198 21.8273 19.5443 21.7656C18.5147 21.4038 15.066 19.9594 13.1736 16.3143C13.0916 16.1562 13.112 15.9643 13.2284 15.8295L14.6652 14.1673C14.812 13.9976 14.8491 13.7589 14.7609 13.5527L13.1101 9.69064C13.0222 9.48504 12.8253 9.34724 12.6023 9.33506Z" fill="white"/>
</svg>
